.
 
http://www.scenetime.com    -   SceneTime [ We been having it ] !!!


How come you press harder on a remote control when you know the battery is dead? so you better seed to get speed ;)

        Seed back for speed


...................................NFO:.................................................[img]http://img12.imageshack.us/img12/1015/takeo.jpg[/img]


[color=blue][size=5][b]Take.Me.Home.Tonight.2011.BDRip.XVID.AC3.HQ.Hive-CM8[/b][/size][/color]


[b]Thx Hive


CM8 Doing It Right The First Time :D


Source Bluray

Video: 720x304 @bitrate 1800 2pass
Audio: English DTS to AC3 5.1 @448
Sample: yes included[/b]


[url]http://www.imdb.com/title/tt0810922/[/url]


General
Complete name                    : Take.Me.Home.Tonight.2011.BDRip.XVID.AC3.HQ.Hive-CM8.avi
Format                           : AVI
Format/Info                      : Audio Video Interleave
File size                        : 1.53 GiB
Duration                         : 1h 37mn
Overall bit rate                 : 2 255 Kbps
Writing application              : Nandub v1.0rc2
Writing library                  : Nandub build 1853/release

Video
ID                               : 0
Format                           : MPEG-4 Visual
Format profile                   : Advanced Simple@L5
Format settings, BVOP            : 1
Format settings, QPel            : Yes
Format settings, GMC             : No warppoints
Format settings, Matrix          : Default (H.263)
Muxing mode                      : Packed bitstream
Codec ID                         : XVID
Codec ID/Hint                    : XviD
Duration                         : 1h 37mn
Bit rate                         : 1 798 Kbps
Width                            : 720 pixels
Height                           : 304 pixels
Display aspect ratio             : 2.40:1
Frame rate                       : 23.976 fps
Color space                      : YUV
Chroma subsampling               : 4:2:0
Bit depth                        : 8 bits
Scan type                        : Progressive
Compression mode                 : Lossy
Bits/(Pixel*Frame)               : 0.343
Stream size                      : 1.22 GiB (80%)
Writing library                  : XviD 1.2.1 (UTC 2008-12-04)

Audio
ID                               : 1
Format                           : AC-3
Format/Info                      : Audio Coding 3
Mode extension                   : CM (complete main)
Codec ID                         : 2000
Duration                         : 1h 37mn
Bit rate mode                    : Constant
Bit rate                         : 448 Kbps
Channel(s)                       : 6 channels
Channel positions                : Front: L C R, Side: L R, LFE
Sampling rate                    : 48.0 KHz
Bit depth                        : 16 bits
Compression mode                 : Lossy
Stream size                      : 312 MiB (20%)
Alignment                        : Split accross interleaves
Interleave, duration             : 42 ms (1.00 video frame)
Interleave, preload duration     : 500 ms


Topher Grace     ...    Matt Franklin
Anna Faris       ...    Wendy Franklin
Dan Fogler       ...    Barry Nathan
Teresa Palmer    ...    Tori Frederking
Chris Pratt      ...    Kyle Masterson
Michael Biehn    ...    Bill Franklin


Follow an aimless college grad who pursues his dream girl at
a wild Labor Day weekend party. He, his twin sister and their
best friend struggle with their burgeoning adulthood over the
course of the night. 


[img]http://img51.imageshack.us/img51/8572/44125134.png[/img]
[img]http://img534.imageshack.us/img534/346/tatan.png[/img]
[img]http://img202.imageshack.us/img202/2065/tatata.png[/img]
[img]http://img146.imageshack.us/img146/5537/tatatata.png[/img]
[img]http://img339.imageshack.us/img339/2720/tatatatata.png[/img]
[img]http://img828.imageshack.us/img828/6835/tatatatatata.png[/img]
[img]http://img30.imageshack.us/img30/674/tatatatatatata.png[/img]
[img]http://img814.imageshack.us/img814/1610/tatatatatatatata.png[/img]
[img]http://img190.imageshack.us/img190/3778/tatatatatatatattaa.png[/img]
[img]http://img812.imageshack.us/img812/6056/tatatattaata.png[/img]


Cover:
[img]http://img812.imageshack.us/img812/1323/takemehometonight2011mo.jpg[/img]



Greetz

ViSiON,SANTi,MAGNET,THC,T0XiC,LKRG,IMAGiNE,WBZ,FLAWL3SS,NOVA
D2U,Vik,Rapeseed,SAFC,goldadvance,MEMORY100,KaN1vE,Unevano,
Pinnz,Wayne,Mr Hive and all P2P groups 
Great Work Guys :D

FYS

CM8@hushmail.com